<mxfile host="65bd71144e">
    <diagram id="6oZ9pzdxrpORshXH0a2x" name="フローチャート">
        <mxGraphModel dx="800" dy="552" grid="1" gridSize="10" guides="1" tooltips="1" connect="1" arrows="1" fold="1" page="1" pageScale="1" pageWidth="827" pageHeight="1169" math="0" shadow="0">
            <root>
                <mxCell id="0"/>
                <mxCell id="1" parent="0"/>
                <mxCell id="2" value="開始" style="html=1;dashed=0;whitespace=wrap;shape=mxgraph.dfd.start;fillColor=#f0a30a;strokeColor=#BD7000;fontColor=#000000;" parent="1" vertex="1">
                    <mxGeometry x="320" y="30" width="80" height="30" as="geometry"/>
                </mxCell>
                <mxCell id="3" value="" style="endArrow=classic;html=1;exitX=0.5;exitY=0.5;exitDx=0;exitDy=15;exitPerimeter=0;entryX=0.5;entryY=0;entryDx=0;entryDy=0;" parent="1" source="2" target="4" edge="1">
                    <mxGeometry width="50" height="50" relative="1" as="geometry">
                        <mxPoint x="380" y="110" as="sourcePoint"/>
                        <mxPoint x="360" y="90" as="targetPoint"/>
                    </mxGeometry>
                </mxCell>
                <mxCell id="4" value="検索欄にURLを入力する" style="rounded=1;whiteSpace=wrap;html=1;fillColor=#6d8764;strokeColor=#3A5431;fontColor=#000000;" parent="1" vertex="1">
                    <mxGeometry x="300" y="100" width="120" height="60" as="geometry"/>
                </mxCell>
                <mxCell id="5" value="検索実行ボタンを押下する" style="rounded=1;whiteSpace=wrap;html=1;fillColor=#6d8764;strokeColor=#3A5431;fontColor=#000000;" parent="1" vertex="1">
                    <mxGeometry x="300" y="190" width="120" height="60" as="geometry"/>
                </mxCell>
                <mxCell id="6" value="" style="endArrow=classic;html=1;fontColor=#000000;exitX=0.5;exitY=1;exitDx=0;exitDy=0;entryX=0.5;entryY=0;entryDx=0;entryDy=0;" parent="1" source="4" target="5" edge="1">
                    <mxGeometry width="50" height="50" relative="1" as="geometry">
                        <mxPoint x="380" y="210" as="sourcePoint"/>
                        <mxPoint x="430" y="160" as="targetPoint"/>
                    </mxGeometry>
                </mxCell>
                <mxCell id="7" value="検索結果画面に遷移する" style="rounded=1;whiteSpace=wrap;html=1;fillColor=#6d8764;strokeColor=#3A5431;fontColor=#000000;" parent="1" vertex="1">
                    <mxGeometry x="300" y="1830" width="120" height="60" as="geometry"/>
                </mxCell>
                <mxCell id="8" value="" style="endArrow=classic;html=1;fontColor=#000000;exitX=0.5;exitY=1;exitDx=0;exitDy=0;entryX=0.5;entryY=0;entryDx=0;entryDy=0;" parent="1" source="5" edge="1">
                    <mxGeometry width="50" height="50" relative="1" as="geometry">
                        <mxPoint x="270" y="280" as="sourcePoint"/>
                        <mxPoint x="360" y="280" as="targetPoint"/>
                    </mxGeometry>
                </mxCell>
                <mxCell id="9" value="終了" style="html=1;dashed=0;whitespace=wrap;shape=mxgraph.dfd.start;fillColor=#f0a30a;strokeColor=#BD7000;fontColor=#000000;" parent="1" vertex="1">
                    <mxGeometry x="320" y="1920" width="80" height="30" as="geometry"/>
                </mxCell>
                <mxCell id="10" value="" style="endArrow=classic;html=1;fontColor=#000000;exitX=0.5;exitY=1;exitDx=0;exitDy=0;entryX=0.5;entryY=0.5;entryDx=0;entryDy=-15;entryPerimeter=0;" parent="1" source="7" target="9" edge="1">
                    <mxGeometry width="50" height="50" relative="1" as="geometry">
                        <mxPoint x="444" y="1970" as="sourcePoint"/>
                        <mxPoint x="494" y="1920" as="targetPoint"/>
                    </mxGeometry>
                </mxCell>
                <mxCell id="QjrN7xGTKkNubu_U4gSk-11" value="API取得機能によりalert表示&lt;br&gt;画面はトップページのまま" style="rounded=1;whiteSpace=wrap;html=1;fillColor=#6d8764;strokeColor=#3A5431;fontColor=#000000;" parent="1" vertex="1">
                    <mxGeometry x="80" y="180" width="120" height="60" as="geometry"/>
                </mxCell>
                <mxCell id="QjrN7xGTKkNubu_U4gSk-12" value="" style="endArrow=classic;html=1;rounded=0;fontColor=#333333;exitX=0.5;exitY=0;exitDx=0;exitDy=0;entryX=0.5;entryY=0;entryDx=0;entryDy=0;edgeStyle=orthogonalEdgeStyle;" parent="1" source="QjrN7xGTKkNubu_U4gSk-11" target="4" edge="1">
                    <mxGeometry width="50" height="50" relative="1" as="geometry">
                        <mxPoint x="390" y="290" as="sourcePoint"/>
                        <mxPoint x="440" y="240" as="targetPoint"/>
                        <Array as="points">
                            <mxPoint x="140" y="80"/>
                            <mxPoint x="360" y="80"/>
                        </Array>
                    </mxGeometry>
                </mxCell>
                <mxCell id="bl7FOLCAKETJyRzJLyq2-12" value="APIエンドポイントに検索欄に入力されたURLを組み合わせる" style="rounded=1;whiteSpace=wrap;html=1;labelBackgroundColor=none;fontColor=#000000;fillColor=#6d8764;strokeColor=#3A5431;" parent="1" vertex="1">
                    <mxGeometry x="300" y="280" width="120" height="60" as="geometry"/>
                </mxCell>
                <mxCell id="bl7FOLCAKETJyRzJLyq2-14" value="レスポンスは正常か" style="rhombus;whiteSpace=wrap;html=1;labelBackgroundColor=none;fillColor=#ffcc99;strokeColor=#36393d;rounded=1;" parent="1" vertex="1">
                    <mxGeometry x="300" y="570" width="120" height="80" as="geometry"/>
                </mxCell>
                <mxCell id="bl7FOLCAKETJyRzJLyq2-15" value="APIのGETリクエストを送信する" style="rounded=1;whiteSpace=wrap;html=1;labelBackgroundColor=none;fontColor=#000000;fillColor=#6d8764;strokeColor=#3A5431;" parent="1" vertex="1">
                    <mxGeometry x="300" y="370" width="120" height="60" as="geometry"/>
                </mxCell>
                <mxCell id="bl7FOLCAKETJyRzJLyq2-16" value="" style="endArrow=classic;html=1;strokeColor=#333333;fontColor=#000000;exitX=0.5;exitY=1;exitDx=0;exitDy=0;" parent="1" source="bl7FOLCAKETJyRzJLyq2-12" target="bl7FOLCAKETJyRzJLyq2-15" edge="1">
                    <mxGeometry width="50" height="50" relative="1" as="geometry">
                        <mxPoint x="346" y="380" as="sourcePoint"/>
                        <mxPoint x="396" y="330" as="targetPoint"/>
                    </mxGeometry>
                </mxCell>
                <mxCell id="bl7FOLCAKETJyRzJLyq2-17" value="" style="endArrow=classic;html=1;exitX=0.5;exitY=1;exitDx=0;exitDy=0;entryX=0.5;entryY=0;entryDx=0;entryDy=0;" parent="1" source="bl7FOLCAKETJyRzJLyq2-15" target="bl7FOLCAKETJyRzJLyq2-33" edge="1">
                    <mxGeometry width="50" height="50" relative="1" as="geometry">
                        <mxPoint x="336" y="530" as="sourcePoint"/>
                        <mxPoint x="360" y="460" as="targetPoint"/>
                    </mxGeometry>
                </mxCell>
                <mxCell id="bl7FOLCAKETJyRzJLyq2-18" value="はい" style="endArrow=classic;html=1;entryX=0.5;entryY=0;entryDx=0;entryDy=0;exitX=0.5;exitY=1;exitDx=0;exitDy=0;" parent="1" source="bl7FOLCAKETJyRzJLyq2-33" target="bl7FOLCAKETJyRzJLyq2-14" edge="1">
                    <mxGeometry x="-1" y="20" width="50" height="50" relative="1" as="geometry">
                        <mxPoint x="360" y="580" as="sourcePoint"/>
                        <mxPoint x="386" y="540" as="targetPoint"/>
                        <mxPoint as="offset"/>
                    </mxGeometry>
                </mxCell>
                <mxCell id="bl7FOLCAKETJyRzJLyq2-21" value="いいえ" style="endArrow=classic;html=1;entryX=0.5;entryY=1;entryDx=0;entryDy=0;edgeStyle=orthogonalEdgeStyle;rounded=0;exitX=0;exitY=0.5;exitDx=0;exitDy=0;" parent="1" source="bl7FOLCAKETJyRzJLyq2-14" target="bl7FOLCAKETJyRzJLyq2-22" edge="1">
                    <mxGeometry x="-0.9194" y="10" width="50" height="50" relative="1" as="geometry">
                        <mxPoint x="440" y="620" as="sourcePoint"/>
                        <mxPoint x="386" y="510" as="targetPoint"/>
                        <mxPoint as="offset"/>
                        <Array as="points">
                            <mxPoint x="60" y="610"/>
                        </Array>
                    </mxGeometry>
                </mxCell>
                <mxCell id="bl7FOLCAKETJyRzJLyq2-22" value="レスポンスに格納されているエラーメッセージをalertで表示する" style="rounded=1;whiteSpace=wrap;html=1;labelBackgroundColor=none;fontColor=#000000;fillColor=#6d8764;strokeColor=#3A5431;" parent="1" vertex="1">
                    <mxGeometry y="370" width="120" height="60" as="geometry"/>
                </mxCell>
                <mxCell id="bl7FOLCAKETJyRzJLyq2-24" value="はい" style="endArrow=classic;html=1;rounded=0;exitX=0.5;exitY=1;exitDx=0;exitDy=0;entryX=0.5;entryY=0;entryDx=0;entryDy=0;" parent="1" source="bl7FOLCAKETJyRzJLyq2-14" target="bl7FOLCAKETJyRzJLyq2-25" edge="1">
                    <mxGeometry x="-1" y="26" width="50" height="50" relative="1" as="geometry">
                        <mxPoint x="336" y="860" as="sourcePoint"/>
                        <mxPoint x="360" y="680" as="targetPoint"/>
                        <mxPoint as="offset"/>
                    </mxGeometry>
                </mxCell>
                <mxCell id="bl7FOLCAKETJyRzJLyq2-25" value="レスポンスデータをJSONとして解析" style="rounded=1;whiteSpace=wrap;html=1;labelBackgroundColor=none;fontColor=#000000;fillColor=#6d8764;strokeColor=#3A5431;" parent="1" vertex="1">
                    <mxGeometry x="300" y="680" width="120" height="60" as="geometry"/>
                </mxCell>
                <mxCell id="bl7FOLCAKETJyRzJLyq2-26" value="JSONキー「technologies」に値はあるか" style="rhombus;whiteSpace=wrap;html=1;labelBackgroundColor=none;fillColor=#ffcc99;strokeColor=#36393d;rounded=1;" parent="1" vertex="1">
                    <mxGeometry x="300" y="770" width="120" height="80" as="geometry"/>
                </mxCell>
                <mxCell id="bl7FOLCAKETJyRzJLyq2-27" value="" style="endArrow=classic;html=1;rounded=0;exitX=0.5;exitY=1;exitDx=0;exitDy=0;entryX=0.5;entryY=0;entryDx=0;entryDy=0;" parent="1" source="bl7FOLCAKETJyRzJLyq2-25" target="bl7FOLCAKETJyRzJLyq2-26" edge="1">
                    <mxGeometry width="50" height="50" relative="1" as="geometry">
                        <mxPoint x="336" y="840" as="sourcePoint"/>
                        <mxPoint x="386" y="790" as="targetPoint"/>
                    </mxGeometry>
                </mxCell>
                <mxCell id="bl7FOLCAKETJyRzJLyq2-28" value="レスポンスデータをJSONとして解析" style="rounded=1;whiteSpace=wrap;html=1;labelBackgroundColor=none;fontColor=#000000;fillColor=#6d8764;strokeColor=#3A5431;" parent="1" vertex="1">
                    <mxGeometry x="300" y="890" width="120" height="60" as="geometry"/>
                </mxCell>
                <mxCell id="bl7FOLCAKETJyRzJLyq2-29" value="はい" style="endArrow=classic;html=1;rounded=0;exitX=0.5;exitY=1;exitDx=0;exitDy=0;" parent="1" source="bl7FOLCAKETJyRzJLyq2-26" target="bl7FOLCAKETJyRzJLyq2-28" edge="1">
                    <mxGeometry x="-1" y="26" width="50" height="50" relative="1" as="geometry">
                        <mxPoint x="336" y="840" as="sourcePoint"/>
                        <mxPoint x="386" y="790" as="targetPoint"/>
                        <mxPoint as="offset"/>
                    </mxGeometry>
                </mxCell>
                <mxCell id="bl7FOLCAKETJyRzJLyq2-30" value="検索結果で表示するものがないフラグを立てる" style="rounded=1;whiteSpace=wrap;html=1;labelBackgroundColor=none;fontColor=#000000;fillColor=#6d8764;strokeColor=#3A5431;" parent="1" vertex="1">
                    <mxGeometry x="436" y="890" width="120" height="60" as="geometry"/>
                </mxCell>
                <mxCell id="bl7FOLCAKETJyRzJLyq2-31" value="いいえ" style="endArrow=classic;html=1;rounded=0;exitX=1;exitY=0.5;exitDx=0;exitDy=0;entryX=0.5;entryY=0;entryDx=0;entryDy=0;edgeStyle=orthogonalEdgeStyle;" parent="1" source="bl7FOLCAKETJyRzJLyq2-26" target="bl7FOLCAKETJyRzJLyq2-30" edge="1">
                    <mxGeometry x="-0.7045" y="10" width="50" height="50" relative="1" as="geometry">
                        <mxPoint x="336" y="830" as="sourcePoint"/>
                        <mxPoint x="386" y="780" as="targetPoint"/>
                        <mxPoint as="offset"/>
                    </mxGeometry>
                </mxCell>
                <mxCell id="bl7FOLCAKETJyRzJLyq2-33" value="通信に成功しレスポンスを受け取ることができた" style="rhombus;whiteSpace=wrap;html=1;labelBackgroundColor=none;fillColor=#ffcc99;strokeColor=#36393d;rounded=1;" parent="1" vertex="1">
                    <mxGeometry x="300" y="460" width="120" height="80" as="geometry"/>
                </mxCell>
                <mxCell id="bl7FOLCAKETJyRzJLyq2-34" value="通信に失敗したことをalertで表示する" style="rounded=1;whiteSpace=wrap;html=1;labelBackgroundColor=none;fontColor=#000000;fillColor=#6d8764;strokeColor=#3A5431;" parent="1" vertex="1">
                    <mxGeometry x="150" y="370" width="120" height="60" as="geometry"/>
                </mxCell>
                <mxCell id="bl7FOLCAKETJyRzJLyq2-35" value="いいえ" style="endArrow=classic;html=1;rounded=0;fontColor=#333333;exitX=0;exitY=0.5;exitDx=0;exitDy=0;entryX=0.5;entryY=1;entryDx=0;entryDy=0;edgeStyle=orthogonalEdgeStyle;" parent="1" source="bl7FOLCAKETJyRzJLyq2-33" target="bl7FOLCAKETJyRzJLyq2-34" edge="1">
                    <mxGeometry x="-0.9467" y="10" width="50" height="50" relative="1" as="geometry">
                        <mxPoint x="1040" y="670" as="sourcePoint"/>
                        <mxPoint x="1090" y="620" as="targetPoint"/>
                        <mxPoint as="offset"/>
                    </mxGeometry>
                </mxCell>
                <mxCell id="aM-eDCjWVoUFMHNncY0Y-11" value="検索文字列を削除" style="rounded=1;whiteSpace=wrap;html=1;labelBackgroundColor=none;fillColor=#6d8764;fontColor=#333333;strokeColor=#3A5431;" parent="1" vertex="1">
                    <mxGeometry x="300" y="990" width="120" height="60" as="geometry"/>
                </mxCell>
                <mxCell id="aM-eDCjWVoUFMHNncY0Y-14" value="画面を初期化する" style="rounded=1;whiteSpace=wrap;html=1;labelBackgroundColor=none;fillColor=#6d8764;fontColor=#333333;strokeColor=#3A5431;" parent="1" vertex="1">
                    <mxGeometry x="300" y="1080" width="120" height="60" as="geometry"/>
                </mxCell>
                <mxCell id="aM-eDCjWVoUFMHNncY0Y-15" value="&lt;span style=&quot;color: rgb(0, 0, 0); background-color: rgb(255, 255, 255);&quot;&gt;※終了条件「入力されたURLが存在しない場合」&lt;/span&gt;&lt;span style=&quot;color: rgb(0, 0, 0); background-color: rgb(255, 255, 255);&quot;&gt;「検索対象サービスが情報隠蔽を実施しておりデータが取得できなかった場合」も含みます&lt;/span&gt;" style="text;html=1;strokeColor=none;fillColor=none;align=center;verticalAlign=middle;whiteSpace=wrap;rounded=0;labelBackgroundColor=none;fontColor=#333333;" parent="1" vertex="1">
                    <mxGeometry width="820" height="30" as="geometry"/>
                </mxCell>
                <mxCell id="aM-eDCjWVoUFMHNncY0Y-16" value="" style="endArrow=classic;html=1;rounded=0;fontColor=#333333;exitX=0.5;exitY=1;exitDx=0;exitDy=0;entryX=0.5;entryY=0;entryDx=0;entryDy=0;" parent="1" source="aM-eDCjWVoUFMHNncY0Y-11" target="aM-eDCjWVoUFMHNncY0Y-14" edge="1">
                    <mxGeometry width="50" height="50" relative="1" as="geometry">
                        <mxPoint x="340" y="1110" as="sourcePoint"/>
                        <mxPoint x="390" y="1060" as="targetPoint"/>
                    </mxGeometry>
                </mxCell>
                <mxCell id="aM-eDCjWVoUFMHNncY0Y-17" value="取得したデータ内で技術要素が存在している" style="rhombus;whiteSpace=wrap;html=1;labelBackgroundColor=none;fontColor=#000000;rounded=1;fillColor=#FFCC99;strokeColor=#B09500;" parent="1" vertex="1">
                    <mxGeometry x="300" y="1169" width="120" height="80" as="geometry"/>
                </mxCell>
                <mxCell id="aM-eDCjWVoUFMHNncY0Y-18" value="" style="endArrow=classic;html=1;rounded=0;fontColor=#333333;exitX=0.5;exitY=1;exitDx=0;exitDy=0;entryX=0.5;entryY=0;entryDx=0;entryDy=0;" parent="1" source="aM-eDCjWVoUFMHNncY0Y-14" target="aM-eDCjWVoUFMHNncY0Y-17" edge="1">
                    <mxGeometry width="50" height="50" relative="1" as="geometry">
                        <mxPoint x="290" y="1170" as="sourcePoint"/>
                        <mxPoint x="390" y="1160" as="targetPoint"/>
                    </mxGeometry>
                </mxCell>
                <mxCell id="aM-eDCjWVoUFMHNncY0Y-19" value="技術要素の数を取得。ここではlengthと呼ぶ" style="rounded=1;whiteSpace=wrap;html=1;labelBackgroundColor=none;fillColor=#6d8764;fontColor=#333333;strokeColor=#3A5431;" parent="1" vertex="1">
                    <mxGeometry x="300" y="1280" width="120" height="60" as="geometry"/>
                </mxCell>
                <mxCell id="aM-eDCjWVoUFMHNncY0Y-20" value="「技術要素が取得できませんでした」という文言をinnerHTMLに渡す" style="rounded=1;whiteSpace=wrap;html=1;labelBackgroundColor=none;fillColor=#6d8764;fontColor=#333333;strokeColor=#3A5431;" parent="1" vertex="1">
                    <mxGeometry x="510" y="1280" width="120" height="60" as="geometry"/>
                </mxCell>
                <mxCell id="aM-eDCjWVoUFMHNncY0Y-21" value="いいえ" style="endArrow=classic;html=1;rounded=0;fontColor=#333333;exitX=1;exitY=0.5;exitDx=0;exitDy=0;entryX=0.5;entryY=0;entryDx=0;entryDy=0;edgeStyle=orthogonalEdgeStyle;" parent="1" source="aM-eDCjWVoUFMHNncY0Y-17" target="aM-eDCjWVoUFMHNncY0Y-20" edge="1">
                    <mxGeometry x="-0.7204" y="10" width="50" height="50" relative="1" as="geometry">
                        <mxPoint x="340" y="1170" as="sourcePoint"/>
                        <mxPoint x="390" y="1120" as="targetPoint"/>
                        <mxPoint as="offset"/>
                    </mxGeometry>
                </mxCell>
                <mxCell id="aM-eDCjWVoUFMHNncY0Y-22" value="はい" style="endArrow=classic;html=1;rounded=0;fontColor=#333333;entryX=0.5;entryY=0;entryDx=0;entryDy=0;" parent="1" source="aM-eDCjWVoUFMHNncY0Y-17" target="aM-eDCjWVoUFMHNncY0Y-19" edge="1">
                    <mxGeometry x="-0.3333" y="16" width="50" height="50" relative="1" as="geometry">
                        <mxPoint x="340" y="1170" as="sourcePoint"/>
                        <mxPoint x="390" y="1120" as="targetPoint"/>
                        <mxPoint as="offset"/>
                    </mxGeometry>
                </mxCell>
                <mxCell id="aM-eDCjWVoUFMHNncY0Y-23" value="length &amp;gt; i" style="rhombus;whiteSpace=wrap;html=1;labelBackgroundColor=none;fontColor=#000000;rounded=1;fillColor=#FFCC99;strokeColor=#B09500;" parent="1" vertex="1">
                    <mxGeometry x="300" y="1470" width="120" height="80" as="geometry"/>
                </mxCell>
                <mxCell id="aM-eDCjWVoUFMHNncY0Y-24" value="" style="endArrow=classic;html=1;rounded=0;fontColor=#333333;exitX=0.5;exitY=1;exitDx=0;exitDy=0;entryX=0.5;entryY=0;entryDx=0;entryDy=0;" parent="1" source="aM-eDCjWVoUFMHNncY0Y-19" target="aM-eDCjWVoUFMHNncY0Y-27" edge="1">
                    <mxGeometry width="50" height="50" relative="1" as="geometry">
                        <mxPoint x="410" y="1450" as="sourcePoint"/>
                        <mxPoint x="364" y="1380" as="targetPoint"/>
                    </mxGeometry>
                </mxCell>
                <mxCell id="aM-eDCjWVoUFMHNncY0Y-25" value="技術要素のジャンルと要素名をinnerHTMLに渡す" style="rounded=1;whiteSpace=wrap;html=1;labelBackgroundColor=none;fillColor=#6d8764;fontColor=#333333;strokeColor=#3A5431;" parent="1" vertex="1">
                    <mxGeometry x="300" y="1570" width="120" height="60" as="geometry"/>
                </mxCell>
                <mxCell id="aM-eDCjWVoUFMHNncY0Y-26" value="はい" style="endArrow=classic;html=1;rounded=0;fontColor=#333333;exitX=0.5;exitY=1;exitDx=0;exitDy=0;entryX=0.5;entryY=0;entryDx=0;entryDy=0;" parent="1" source="aM-eDCjWVoUFMHNncY0Y-23" target="aM-eDCjWVoUFMHNncY0Y-25" edge="1">
                    <mxGeometry x="-1" y="16" width="50" height="50" relative="1" as="geometry">
                        <mxPoint x="410" y="1530" as="sourcePoint"/>
                        <mxPoint x="460" y="1480" as="targetPoint"/>
                        <mxPoint as="offset"/>
                    </mxGeometry>
                </mxCell>
                <mxCell id="aM-eDCjWVoUFMHNncY0Y-27" value="i = 0とする" style="rounded=1;whiteSpace=wrap;html=1;labelBackgroundColor=none;fillColor=#6d8764;fontColor=#333333;strokeColor=#3A5431;" parent="1" vertex="1">
                    <mxGeometry x="300" y="1370" width="120" height="60" as="geometry"/>
                </mxCell>
                <mxCell id="aM-eDCjWVoUFMHNncY0Y-28" value="" style="endArrow=classic;html=1;rounded=0;fontColor=#333333;exitX=0.5;exitY=1;exitDx=0;exitDy=0;entryX=0.5;entryY=0;entryDx=0;entryDy=0;" parent="1" source="aM-eDCjWVoUFMHNncY0Y-27" target="aM-eDCjWVoUFMHNncY0Y-23" edge="1">
                    <mxGeometry width="50" height="50" relative="1" as="geometry">
                        <mxPoint x="410" y="1450" as="sourcePoint"/>
                        <mxPoint x="460" y="1400" as="targetPoint"/>
                    </mxGeometry>
                </mxCell>
                <mxCell id="aM-eDCjWVoUFMHNncY0Y-29" value="iに1加算する" style="rounded=1;whiteSpace=wrap;html=1;labelBackgroundColor=none;fillColor=#6d8764;fontColor=#333333;strokeColor=#3A5431;" parent="1" vertex="1">
                    <mxGeometry x="300" y="1670" width="120" height="60" as="geometry"/>
                </mxCell>
                <mxCell id="aM-eDCjWVoUFMHNncY0Y-30" value="" style="endArrow=classic;html=1;rounded=0;fontColor=#333333;exitX=0.5;exitY=1;exitDx=0;exitDy=0;entryX=0.5;entryY=0;entryDx=0;entryDy=0;" parent="1" source="aM-eDCjWVoUFMHNncY0Y-25" target="aM-eDCjWVoUFMHNncY0Y-29" edge="1">
                    <mxGeometry width="50" height="50" relative="1" as="geometry">
                        <mxPoint x="410" y="1680" as="sourcePoint"/>
                        <mxPoint x="460" y="1630" as="targetPoint"/>
                    </mxGeometry>
                </mxCell>
                <mxCell id="aM-eDCjWVoUFMHNncY0Y-31" value="" style="endArrow=classic;html=1;rounded=0;fontColor=#333333;exitX=0.5;exitY=1;exitDx=0;exitDy=0;edgeStyle=orthogonalEdgeStyle;entryX=0.5;entryY=0;entryDx=0;entryDy=0;" parent="1" source="aM-eDCjWVoUFMHNncY0Y-29" target="aM-eDCjWVoUFMHNncY0Y-23" edge="1">
                    <mxGeometry width="50" height="50" relative="1" as="geometry">
                        <mxPoint x="410" y="1680" as="sourcePoint"/>
                        <mxPoint x="450" y="1440" as="targetPoint"/>
                        <Array as="points">
                            <mxPoint x="360" y="1750"/>
                            <mxPoint x="260" y="1750"/>
                            <mxPoint x="260" y="1440"/>
                            <mxPoint x="360" y="1440"/>
                        </Array>
                    </mxGeometry>
                </mxCell>
                <mxCell id="aM-eDCjWVoUFMHNncY0Y-33" value="" style="endArrow=classic;html=1;rounded=0;fontColor=#333333;entryX=0.5;entryY=0;entryDx=0;entryDy=0;edgeStyle=orthogonalEdgeStyle;exitX=0.5;exitY=1;exitDx=0;exitDy=0;" parent="1" source="aM-eDCjWVoUFMHNncY0Y-34" target="7" edge="1">
                    <mxGeometry width="50" height="50" relative="1" as="geometry">
                        <mxPoint x="570" y="1490" as="sourcePoint"/>
                        <mxPoint x="364" y="1810" as="targetPoint"/>
                        <Array as="points">
                            <mxPoint x="570" y="1780"/>
                            <mxPoint x="360" y="1780"/>
                        </Array>
                    </mxGeometry>
                </mxCell>
                <mxCell id="aM-eDCjWVoUFMHNncY0Y-34" value="初期化した画面に追加する" style="rounded=1;whiteSpace=wrap;html=1;labelBackgroundColor=none;fillColor=#6d8764;fontColor=#333333;strokeColor=#3A5431;" parent="1" vertex="1">
                    <mxGeometry x="510" y="1400" width="120" height="60" as="geometry"/>
                </mxCell>
                <mxCell id="aM-eDCjWVoUFMHNncY0Y-35" value="" style="endArrow=classic;html=1;exitX=0.5;exitY=1;exitDx=0;exitDy=0;entryX=0.5;entryY=0;entryDx=0;entryDy=0;" parent="1" source="aM-eDCjWVoUFMHNncY0Y-20" target="aM-eDCjWVoUFMHNncY0Y-34" edge="1">
                    <mxGeometry width="50" height="50" relative="1" as="geometry">
                        <mxPoint x="411" y="1420" as="sourcePoint"/>
                        <mxPoint x="461" y="1370" as="targetPoint"/>
                    </mxGeometry>
                </mxCell>
                <mxCell id="aM-eDCjWVoUFMHNncY0Y-38" value="" style="endArrow=classic;html=1;jumpStyle=none;exitX=0.5;exitY=0;exitDx=0;exitDy=0;entryX=0.5;entryY=1;entryDx=0;entryDy=0;edgeStyle=orthogonalEdgeStyle;rounded=0;" parent="1" source="bl7FOLCAKETJyRzJLyq2-22" target="QjrN7xGTKkNubu_U4gSk-11" edge="1">
                    <mxGeometry width="50" height="50" relative="1" as="geometry">
                        <mxPoint x="170" y="230" as="sourcePoint"/>
                        <mxPoint x="220" y="180" as="targetPoint"/>
                    </mxGeometry>
                </mxCell>
                <mxCell id="aM-eDCjWVoUFMHNncY0Y-39" value="" style="endArrow=classic;html=1;jumpStyle=none;exitX=0.5;exitY=0;exitDx=0;exitDy=0;entryX=0.5;entryY=1;entryDx=0;entryDy=0;edgeStyle=orthogonalEdgeStyle;rounded=0;" parent="1" source="bl7FOLCAKETJyRzJLyq2-34" target="QjrN7xGTKkNubu_U4gSk-11" edge="1">
                    <mxGeometry width="50" height="50" relative="1" as="geometry">
                        <mxPoint x="170" y="230" as="sourcePoint"/>
                        <mxPoint x="220" y="180" as="targetPoint"/>
                    </mxGeometry>
                </mxCell>
                <mxCell id="aM-eDCjWVoUFMHNncY0Y-40" value="innerHTMLに渡したデータを画面に追加する" style="rounded=1;whiteSpace=wrap;html=1;labelBackgroundColor=none;fillColor=#6d8764;fontColor=#333333;strokeColor=#3A5431;" parent="1" vertex="1">
                    <mxGeometry x="431" y="1570" width="120" height="60" as="geometry"/>
                </mxCell>
                <mxCell id="aM-eDCjWVoUFMHNncY0Y-41" value="" style="endArrow=classic;html=1;rounded=0;jumpStyle=none;exitX=1;exitY=0.5;exitDx=0;exitDy=0;entryX=0.5;entryY=0;entryDx=0;entryDy=0;edgeStyle=orthogonalEdgeStyle;" parent="1" source="aM-eDCjWVoUFMHNncY0Y-23" target="aM-eDCjWVoUFMHNncY0Y-40" edge="1">
                    <mxGeometry width="50" height="50" relative="1" as="geometry">
                        <mxPoint x="421" y="1680" as="sourcePoint"/>
                        <mxPoint x="471" y="1630" as="targetPoint"/>
                    </mxGeometry>
                </mxCell>
                <mxCell id="aM-eDCjWVoUFMHNncY0Y-42" value="" style="endArrow=classic;html=1;rounded=0;jumpStyle=none;exitX=0.5;exitY=1;exitDx=0;exitDy=0;entryX=0.5;entryY=0;entryDx=0;entryDy=0;edgeStyle=orthogonalEdgeStyle;" parent="1" source="aM-eDCjWVoUFMHNncY0Y-40" target="7" edge="1">
                    <mxGeometry width="50" height="50" relative="1" as="geometry">
                        <mxPoint x="421" y="1680" as="sourcePoint"/>
                        <mxPoint x="471" y="1630" as="targetPoint"/>
                        <Array as="points">
                            <mxPoint x="491" y="1780"/>
                            <mxPoint x="360" y="1780"/>
                        </Array>
                    </mxGeometry>
                </mxCell>
                <mxCell id="aM-eDCjWVoUFMHNncY0Y-43" value="" style="endArrow=classic;html=1;rounded=0;jumpStyle=none;exitX=0.5;exitY=1;exitDx=0;exitDy=0;entryX=0.5;entryY=0;entryDx=0;entryDy=0;" parent="1" source="bl7FOLCAKETJyRzJLyq2-28" target="aM-eDCjWVoUFMHNncY0Y-11" edge="1">
                    <mxGeometry width="50" height="50" relative="1" as="geometry">
                        <mxPoint x="430" y="1030" as="sourcePoint"/>
                        <mxPoint x="480" y="980" as="targetPoint"/>
                    </mxGeometry>
                </mxCell>
                <mxCell id="aM-eDCjWVoUFMHNncY0Y-44" value="" style="endArrow=classic;html=1;rounded=0;jumpStyle=none;exitX=0.5;exitY=1;exitDx=0;exitDy=0;entryX=0.5;entryY=0;entryDx=0;entryDy=0;edgeStyle=orthogonalEdgeStyle;" parent="1" source="bl7FOLCAKETJyRzJLyq2-30" target="aM-eDCjWVoUFMHNncY0Y-11" edge="1">
                    <mxGeometry width="50" height="50" relative="1" as="geometry">
                        <mxPoint x="430" y="1030" as="sourcePoint"/>
                        <mxPoint x="520" y="1010" as="targetPoint"/>
                    </mxGeometry>
                </mxCell>
            </root>
        </mxGraphModel>
    </diagram>
</mxfile>